<svg width="229" height="63" viewBox="0 0 229 63" fill="none" xmlns="http://www.w3.org/2000/svg">
<g clip-path="url(#clip0_349_125)">
<path d="M61.2574 5.37231V46.1871L66.4993 46.2071V26.7801H79.1639V21.6382H66.4993V10.5142H82.9852V5.37231H61.2574ZM92.4487 13.6553C94.3494 13.6553 95.8699 12.1148 95.8699 10.2341C95.8699 8.35339 94.3294 6.81284 92.4487 6.81284C90.548 6.81284 89.0274 8.35339 89.0274 10.2341C89.0274 12.1148 90.568 13.6553 92.4487 13.6553ZM89.7877 18.7972V46.1871H95.0296V18.7972H89.7877Z" fill="black"/>
<path fill-rule="evenodd" clip-rule="evenodd" d="M114.497 17.9969C107.514 17.9969 102.652 23.899 102.652 30.9016C102.652 37.9041 107.514 43.8062 114.497 43.8062C117.698 43.8062 120.319 42.5658 122.24 40.5651V44.1864C122.24 48.728 118.678 52.5094 114.017 52.5094C112.336 52.5094 110.675 51.8692 109.355 50.9488L106.714 55.5105C108.815 56.871 111.316 57.6512 113.997 57.6512C121.439 57.6512 127.461 51.6291 127.461 44.1864V18.7972H122.24V21.2381C120.319 19.2373 117.698 17.9969 114.497 17.9969ZM107.914 30.9016C107.914 26.56 111.236 23.1387 115.077 23.1387C118.918 23.1387 122.24 26.56 122.24 30.9016C122.24 35.2431 118.918 38.6644 115.077 38.6644C111.236 38.6644 107.914 35.2431 107.914 30.9016Z" fill="black"/>
<path d="M146.408 23.1387C143.307 23.1387 140.786 25.7797 140.786 28.8808V46.1871H135.544V18.7972H140.786V21.2981C142.327 19.3174 144.588 17.9969 147.549 17.9969C151.23 17.9969 154.051 19.8175 155.692 22.6186C157.512 19.9176 160.473 17.9969 164.055 17.9969C170.037 17.9969 173.758 22.8186 173.778 28.7808V46.1871H168.536V28.8608C168.536 25.7597 166.015 23.1187 162.914 23.1187C159.813 23.1187 157.292 25.7597 157.292 28.8608V46.1871H152.05V28.8608C152.03 25.7597 149.509 23.1387 146.408 23.1387Z" fill="black"/>
<path fill-rule="evenodd" clip-rule="evenodd" d="M201.748 21.8983C199.407 19.4774 196.206 17.9969 192.505 17.9969C184.702 17.9969 179.14 24.6193 179.14 32.5021C179.14 40.385 184.682 47.0074 192.505 47.0074C196.206 47.0074 199.407 45.5068 201.748 43.106V46.1871H206.99V18.7972H201.748V21.8983ZM184.402 32.5021C184.402 27.2802 188.403 23.1387 193.085 23.1387C197.747 23.1387 201.768 27.2602 201.768 32.5021C201.768 37.724 197.767 41.8655 193.085 41.8655C188.403 41.8455 184.402 37.724 184.402 32.5021Z" fill="black"/>
<path d="M21.4839 31.5118C21.4839 25.748 26.1567 21.0515 31.9443 21.0515C37.7081 21.0515 42.4046 25.7243 42.4046 31.5118C42.4046 37.2757 37.7318 41.9722 31.9443 41.9722C26.1804 41.9722 21.4839 37.2757 21.4839 31.5118Z" fill="#1ABCFE"/>
<path d="M0.586914 52.4087C0.586914 46.6448 5.25967 41.9484 11.0472 41.9484H21.5076V52.4087C21.5076 58.1725 16.8348 62.869 11.0472 62.869C5.25967 62.869 0.586914 58.1963 0.586914 52.4087Z" fill="#0ACF83"/>
<path d="M21.4839 0.154579V21.0515H31.9443C37.7081 21.0515 42.4046 16.3788 42.4046 10.5912C42.4046 4.82733 37.7318 0.130859 31.9443 0.130859H21.4839V0.154579Z" fill="#FF7262"/>
<path d="M0.586914 10.6149C0.586914 16.3787 5.25967 21.0752 11.0472 21.0752H21.5076V0.154541H11.0472C5.25967 0.154541 0.586914 4.82729 0.586914 10.6149Z" fill="#F24E1E"/>
<path d="M0.586914 31.5118C0.586914 37.2757 5.25967 41.9722 11.0472 41.9722H21.5076V21.0515H11.0472C5.25967 21.0515 0.586914 25.748 0.586914 31.5118Z" fill="#A259FF"/>
</g>
<defs>
<clipPath id="clip0_349_125">
<rect width="227.85" height="62.7955" fill="white" transform="translate(0.586914 0.102234)"/>
</clipPath>
</defs>
</svg>
