<svg width="274" height="69" viewBox="0 0 274 69" fill="none" xmlns="http://www.w3.org/2000/svg">
<g clip-path="url(#clip0_349_123)">
<path opacity="0.72" d="M68.9696 31.688C68.9359 31.3475 68.7777 31.0313 68.5249 30.7996C68.2722 30.568 67.9426 30.4371 67.5992 30.4321H33.4509C32.5235 30.4546 31.6183 30.7185 30.825 31.1974C30.0317 31.6764 29.3779 32.3538 28.9287 33.1623C28.5129 33.8854 28.2941 34.7043 28.2941 35.5376C28.2941 36.371 28.5129 37.1898 28.9287 37.9129C29.0475 38.1403 29.2237 38.3329 29.4399 38.4718C29.6562 38.6106 29.905 38.6909 30.1619 38.7047H67.6815C68.0249 38.6996 68.3545 38.5688 68.6072 38.3371C68.86 38.1055 69.0182 37.7893 69.0519 37.4488C69.0519 36.384 69.0519 35.483 69.0519 34.7185C69.0519 33.9541 69.0518 32.7255 68.9696 31.688Z" fill="#3758F9"/>
<path d="M68.9421 31.688C68.9149 31.3498 68.7624 31.0339 68.5142 30.8017C68.2659 30.5695 67.9396 30.4378 67.5992 30.4321H62.1179C61.9256 30.4342 61.7359 30.4767 61.5612 30.5567C61.3865 30.6366 61.2307 30.7523 61.1039 30.8962C60.9761 31.0346 60.8803 31.1992 60.8235 31.3785C60.7667 31.5578 60.7502 31.7473 60.775 31.9337C60.775 32.8074 60.775 33.681 60.775 34.6639C60.7681 39.0206 59.6598 43.3053 57.5523 47.1227C55.4447 50.94 52.4057 54.167 48.7161 56.5058C48.3324 56.7516 47.9763 57.0519 47.5652 57.2703C45.5541 58.4113 43.3964 59.2746 41.1519 59.8367L44.7423 66.1982C44.8641 66.4085 45.0401 66.5827 45.2521 66.7027C45.4641 66.8227 45.7042 66.8841 45.948 66.8807C46.093 66.9068 46.2416 66.9068 46.3866 66.8807L47.2634 66.5258L48.0583 66.1982C49.2707 65.6966 50.4514 65.1222 51.5939 64.4781V64.4781C56.9373 61.4796 61.3772 57.1102 64.4521 51.824C67.5269 46.5378 69.1247 40.5277 69.0792 34.4182C69.0792 33.408 69.0243 32.6163 68.9421 31.688Z" fill="#3758F9"/>
<path d="M49.5427 57.6025C49.3585 57.2911 49.0658 57.0579 48.7204 56.9473H48.3367C48.0987 56.9492 47.8644 57.0052 47.6515 57.1111C43.7435 59.3264 39.3218 60.4841 34.8255 60.4693C27.9247 60.4549 21.3107 57.7176 16.4311 52.8565C11.5515 47.9954 8.80378 41.4066 8.7893 34.532C8.80378 27.6575 11.5515 21.0686 16.4311 16.2075C21.3107 11.3465 27.9247 8.60918 34.8255 8.59475C39.3197 8.59618 43.7373 9.75286 47.6515 11.9529C47.8561 12.0823 48.0944 12.1488 48.3367 12.1441H48.6381C48.826 12.1027 49.0034 12.0232 49.159 11.9105C49.3146 11.7977 49.4454 11.6542 49.5427 11.4888L52.2834 6.73819C52.4645 6.42223 52.5144 6.04817 52.4222 5.69608C52.33 5.344 52.1029 5.04185 51.7899 4.85432C46.6312 1.95021 40.8057 0.426437 34.8803 0.431347C25.799 0.445788 17.0937 4.04604 10.6722 10.4432C4.25066 16.8403 0.636718 25.5125 0.622223 34.5593C0.636718 43.6062 4.25066 52.2784 10.6722 58.6755C17.0937 65.0726 25.799 68.6729 34.8803 68.6873C40.8057 68.6922 46.6312 67.1684 51.7899 64.2643C51.9467 64.1767 52.0843 64.0585 52.1944 63.9169C52.3045 63.7753 52.3849 63.6131 52.4309 63.44C52.4769 63.2669 52.4877 63.0863 52.4623 62.909C52.437 62.7316 52.3761 62.5612 52.2834 62.4078L49.5427 57.6025Z" fill="#3758F9"/>
<path opacity="0.56" d="M38.74 38.5953H30.0798C29.8342 38.5778 29.5962 38.5017 29.3863 38.3734C29.1764 38.2451 29.0007 38.0684 28.8738 37.8582V37.8582L44.7971 65.9523C44.919 66.1627 45.095 66.3368 45.307 66.4568C45.5189 66.5768 45.759 66.6382 46.0028 66.6349C46.157 66.6608 46.3146 66.6608 46.4689 66.6349C48.2798 65.9853 50.0312 65.1815 51.7036 64.2322C51.8604 64.1446 51.9976 64.0265 52.1077 63.8849C52.2178 63.7433 52.2982 63.5811 52.3442 63.4079C52.3903 63.2348 52.4011 63.0542 52.3757 62.8769C52.3503 62.6996 52.2894 62.5291 52.1967 62.3757L38.74 38.5953Z" fill="#3758F9"/>
</g>
<path d="M107.658 23.6758V52.6009H102.552V23.6758H94.7728V18.895H115.415V23.6758H107.658Z" fill="#111928"/>
<path d="M132.88 31.3383H137.833V52.6009H132.88V50.3742C130.85 52.2662 128.666 53.2122 126.328 53.2122C123.377 53.2122 120.937 52.1498 119.009 50.025C117.095 47.8565 116.138 45.1495 116.138 41.9041C116.138 38.7169 117.095 36.0609 119.009 33.9361C120.923 31.8112 123.319 30.7488 126.197 30.7488C128.68 30.7488 130.908 31.7676 132.88 33.8051V31.3383ZM121.179 41.9041C121.179 43.9416 121.726 45.6007 122.822 46.8814C123.947 48.1767 125.364 48.8243 127.073 48.8243C128.899 48.8243 130.375 48.1985 131.5 46.9469C132.625 45.6516 133.187 44.0071 133.187 42.0133C133.187 40.0194 132.625 38.3749 131.5 37.0796C130.375 35.8135 128.914 35.1804 127.117 35.1804C125.422 35.1804 124.005 35.8207 122.866 37.1014C121.741 38.3967 121.179 39.9976 121.179 41.9041Z" fill="#111928"/>
<path d="M148.987 31.3383V52.6009H144.056V31.3383H148.987ZM143.311 22.497C143.311 21.6383 143.625 20.8961 144.253 20.2703C144.882 19.6445 145.634 19.3316 146.511 19.3316C147.402 19.3316 148.161 19.6445 148.79 20.2703C149.418 20.8816 149.732 21.6311 149.732 22.5188C149.732 23.4066 149.418 24.1634 148.79 24.7892C148.176 25.415 147.424 25.7279 146.532 25.7279C145.641 25.7279 144.882 25.415 144.253 24.7892C143.625 24.1634 143.311 23.3993 143.311 22.497Z" fill="#111928"/>
<path d="M160.163 15.7296V52.6009H155.232V15.7296H160.163Z" fill="#111928"/>
<path d="M184.75 35.0494H198.73V36.1627C198.73 38.6951 198.431 40.9363 197.832 42.8865C197.248 44.6911 196.261 46.3793 194.874 47.9511C191.733 51.473 187.737 53.234 182.887 53.234C178.154 53.234 174.1 51.5313 170.725 48.1257C167.35 44.7057 165.663 40.6016 165.663 35.8135C165.663 30.9235 167.379 26.7757 170.813 23.3702C174.246 19.9501 178.424 18.2401 183.347 18.2401C185.991 18.2401 188.46 18.7786 190.754 19.8555C192.945 20.9325 195.1 22.6789 197.218 25.0948L193.581 28.5658C190.805 24.8838 187.423 23.0428 183.435 23.0428C179.856 23.0428 176.853 24.2725 174.428 26.7321C172.003 29.148 170.791 32.1751 170.791 35.8135C170.791 39.5683 172.142 42.6609 174.845 45.0913C177.372 47.3471 180.111 48.475 183.062 48.475C185.575 48.475 187.832 47.6309 189.833 45.9427C191.835 44.2399 192.953 42.2025 193.186 39.8302H184.75V35.0494Z" fill="#111928"/>
<path d="M204.231 31.3383H209.161V33.2375C210.067 32.2915 210.87 31.6439 211.572 31.2946C212.288 30.9308 213.135 30.7488 214.114 30.7488C215.414 30.7488 216.772 31.1709 218.19 32.015L215.932 36.512C214.997 35.8426 214.084 35.5078 213.193 35.5078C210.505 35.5078 209.161 37.5308 209.161 41.5766V52.6009H204.231V31.3383Z" fill="#111928"/>
<path d="M226.648 31.3383V52.6009H221.718V31.3383H226.648ZM220.973 22.497C220.973 21.6383 221.287 20.8961 221.915 20.2703C222.543 19.6445 223.295 19.3316 224.172 19.3316C225.063 19.3316 225.823 19.6445 226.451 20.2703C227.079 20.8816 227.393 21.6311 227.393 22.5188C227.393 23.4066 227.079 24.1634 226.451 24.7892C225.837 25.415 225.085 25.7279 224.194 25.7279C223.303 25.7279 222.543 25.415 221.915 24.7892C221.287 24.1634 220.973 23.3993 220.973 22.497Z" fill="#111928"/>
<path d="M248.627 15.7296H253.58V52.6009H248.627V50.3742C246.684 52.2662 244.486 53.2122 242.031 53.2122C239.11 53.2122 236.685 52.1498 234.756 50.025C232.842 47.8565 231.885 45.1495 231.885 41.9041C231.885 38.7314 232.842 36.0827 234.756 33.9579C236.655 31.8185 239.044 30.7488 241.922 30.7488C244.42 30.7488 246.655 31.7676 248.627 33.8051V15.7296ZM236.926 41.9041C236.926 43.9416 237.473 45.6007 238.569 46.8814C239.694 48.1767 241.111 48.8243 242.82 48.8243C244.646 48.8243 246.122 48.1985 247.247 46.9469C248.372 45.6516 248.934 44.0071 248.934 42.0133C248.934 40.0194 248.372 38.3749 247.247 37.0796C246.122 35.8135 244.661 35.1804 242.864 35.1804C241.169 35.1804 239.752 35.8207 238.613 37.1014C237.488 38.3967 236.926 39.9976 236.926 41.9041Z" fill="#111928"/>
<path d="M272.206 34.9621L268.13 37.1233C267.488 35.8135 266.691 35.1586 265.742 35.1586C265.289 35.1586 264.902 35.3114 264.58 35.617C264.259 35.9081 264.098 36.2864 264.098 36.7522C264.098 37.5672 265.048 38.3749 266.947 39.1753C269.562 40.2959 271.322 41.3292 272.228 42.2752C273.134 43.2212 273.587 44.4946 273.587 46.0955C273.587 48.1476 272.827 49.8649 271.308 51.2475C269.832 52.5573 268.05 53.2122 265.961 53.2122C262.382 53.2122 259.847 51.473 258.357 47.9947L262.564 46.0519C263.149 47.0706 263.594 47.7182 263.901 47.9947C264.5 48.5478 265.216 48.8243 266.049 48.8243C267.714 48.8243 268.547 48.0675 268.547 46.554C268.547 45.6807 267.904 44.8657 266.618 44.109C266.122 43.8616 265.625 43.6214 265.128 43.3886C264.632 43.1557 264.128 42.9156 263.616 42.6682C262.185 41.9696 261.176 41.271 260.592 40.5725C259.847 39.6847 259.475 38.5422 259.475 37.1451C259.475 35.2968 260.11 33.7687 261.381 32.5607C262.681 31.3528 264.259 30.7488 266.114 30.7488C268.846 30.7488 270.877 32.1533 272.206 34.9621Z" fill="#111928"/>
<defs>
<clipPath id="clip0_349_123">
<rect width="68.5162" height="68.256" fill="white" transform="translate(0.563019 0.372009)"/>
</clipPath>
</defs>
</svg>
